<?xml version="1.0" encoding="UTF-8"?>
<svg id="Layer_1" xmlns="http://www.w3.org/2000/svg" version="1.1" viewBox="0 0 1366 293.2">
  <!-- Generator: Adobe Illustrator 29.7.1, SVG Export Plug-In . SVG Version: 2.1.1 Build 8)  -->
  <defs>
    <style>
      .st0 {
        fill: #00a499;
      }

      .st0, .st1, .st2, .st3 {
        fill-rule: evenodd;
      }

      .st1 {
        fill: #3d928a;
      }

      .st4 {
        fill: #fff;
      }

      .st2 {
        fill: #4fc0b8;
      }

      .st3 {
        fill: #45a69f;
      }
    </style>
  </defs>
  <g>
    <g>
      <path class="st4" d="M776.91,142.77l-33.76-43.76v40.32l8.44,1.41v1.56h-17.43v-1.48l6.56-1.64v-42.04c-1.33-1.48-3.05-2.58-5.47-2.97l-1.09-.31v-1.33h11.8l29.46,38.06v-35.09l-7.82-1.41v-1.56h16.8v1.48l-6.49,1.64v36.96l.31,10.16h-1.33Z"/>
      <path class="st4" d="M786.59,135.2c0-5.62,4.2-8.09,11.32-9.97l7.57-2.1v-3.37c0-6.37-3-9.67-7.12-9.67-2.17,0-3.9.75-4.87,1.72l-.37,6.74c-.67.37-1.57.6-2.55.6-1.87,0-3.15-1.12-3.15-2.85,0-3.3,5.92-8.32,13.41-8.32s9.97,3.6,9.97,9.89v20.16c0,1.42.37,2.25,2.25,2.25h3.6v.97c.07-.07-3.75,1.95-6.52,1.95-3.37,0-4.8-1.72-4.72-5.7h-.15c-3.3,3.52-6.14,5.77-10.34,5.77-3.52,0-8.32-1.95-8.32-8.09ZM793.63,137.67c.9,1.27,2.4,1.95,4.57,1.95,3,0,5.7-2.32,7.27-4.5v-10.57l-8.17,2.85c-3.97,1.42-5.1,3.6-5.1,6.22,0,1.42.45,2.77,1.42,4.05Z"/>
      <path class="st4" d="M821.81,135.58l.15-23.83h-5.62v-1.35l5.77-1.5,3.67-8.99h1.42v9.14h10.34v2.7h-10.34v23.45c.22,3.07,2.25,4.65,5.32,4.65,2.4,0,4.87-.9,5.7-1.2l.3.82c-1.57,1.27-4.8,3.52-9.29,3.52-4.87,0-7.42-1.95-7.42-7.42Z"/>
      <path class="st4" d="M841.14,135.2c0-5.62,4.2-8.09,11.32-9.97l7.57-2.1v-3.37c0-6.37-3-9.67-7.12-9.67-2.17,0-3.9.75-4.87,1.72l-.37,6.74c-.67.37-1.57.6-2.55.6-1.87,0-3.15-1.12-3.15-2.85,0-3.3,5.92-8.32,13.41-8.32s9.97,3.6,9.97,9.89v20.16c0,1.42.37,2.25,2.25,2.25h3.6v.97c.07-.07-3.75,1.95-6.52,1.95-3.37,0-4.8-1.72-4.72-5.7h-.15c-3.3,3.52-6.14,5.77-10.34,5.77-3.52,0-8.32-1.95-8.32-8.09ZM848.19,137.67c.9,1.27,2.4,1.95,4.57,1.95,3,0,5.7-2.32,7.27-4.5v-10.57l-8.17,2.85c-3.97,1.42-5.1,3.6-5.1,6.22,0,1.42.45,2.77,1.42,4.05Z"/>
      <path class="st4" d="M869.32,158.51c5.77-4.2,6.82-6.29,7.42-16.56v-27.65l-4.87-2.17v-.52l10.19-3.6v32.6c0,4.87-.22,8.99-2.25,12.21-1.87,3-4.87,4.35-10.04,6.67l-.45-.97ZM875.24,95.93c0-2.1,1.72-3.82,3.82-3.82s3.82,1.72,3.82,3.82-1.72,3.82-3.82,3.82-3.82-1.72-3.82-3.82Z"/>
    </g>
    <g>
      <path class="st4" d="M739.34,171.88l-.95.97-.97-.97-1.14,1.18,1.14,1.14.97-.93.95.93,1.18-1.14-1.18-1.18Z"/>
      <path class="st4" d="M755.53,178.79h-.38l-.65,1.44c.74,1.1,1.23,2.26,1.23,3-.59.34-1.46.51-2.64.51-1.75,0-2.24-.38-2.45-2.32l-.34-3.42h-.38l-.66,1.44.46,2.37c.08.47.17.87.27,1.21-.51.42-1.42.7-2.39.7-1.16,0-2.05-.47-3.04-1.56-.84,1.03-1.88,1.56-3.09,1.56-1.4,0-1.94-.47-1.94-1.8v-6.95h-.36l-.61,1.48-2.47,1.63c-1.56,1.1-2.09,2.09-2.09,3.19,0,1.37.8,2.05,2.37,2.05.63,0,1.21-.13,1.75-.38l.59-1.12v.09c.28,2.51.47,3.38,2.37,3.38,1.42,0,2.2-.51,2.85-1.65.99,1.16,1.96,1.61,3.28,1.65h.02c1.06,0,1.86-.23,2.51-.66l.34-1.22h.04c.47,1.39,1.18,1.88,2.6,1.88,1.16,0,2.33-.28,3.02-.66.4-.78.59-1.78.59-2.75s-.23-1.94-.8-3.11ZM736.57,181.77c-1.14,0-1.92-.49-1.92-1.21,0-.47.38-.89,1.31-1.29l2.37-.97.32,3.04c-.53.25-1.03.44-2.09.44Z"/>
      <path class="st4" d="M745.41,186.8l-.93.97-.97-.97-1.14,1.18,1.14,1.14.97-.93.93.93,1.18-1.14-1.18-1.18Z"/>
      <path class="st4" d="M749.91,174.05l-1.14,1.16,1.14,1.14,1.16-1.14-1.16-1.16Z"/>
      <path class="st4" d="M755.57,186.8l-.95.97-.97-.97-1.14,1.18,1.14,1.14.97-.93.95.93,1.18-1.14-1.18-1.18Z"/>
      <path class="st4" d="M783.85,171.45v-1.58h-.36c-1.12.61-1.46,1.42-1.01,2.49l.3,11.03c-.68.23-1.29.36-1.77.36-1.59,0-2.22-.38-2.22-1.71v-1.92h-.36l-.4,2.92c-.57.42-1.37.7-2.3.7-1.06,0-1.9-.13-2.58-.4.97-.85,1.52-1.97,1.52-3.23s-1.06-2.22-2.83-2.22c-.84,0-1.73.19-2.52.49l-1.02,2.62c.49.09.8.28,1.48,1.04l1.14,1.29c-1.03.25-2.2.4-3.53.4-1.54,0-2.11-.59-2.81-2.83l-1.5-4.8h-.36l-.65,1.48,1.42,3.78c.27.76.53,1.37.78,1.86-.76.44-1.92.8-3.23.8-2.16,0-2.56-.36-2.56-1.73h-.36c-.15.78-.17,1.1-.17,1.33,0,1.42.85,1.97,2.66,1.97,1.39,0,2.83-.4,3.51-.89l.3-1.1h.02c.74,1.33,1.42,1.71,2.58,1.71,1.82,0,3.51-.42,4.84-1.1.93.66,2.14,1.1,3.49,1.1.93,0,1.71-.23,2.3-.66l.32-1.22h.06c.1,1.16.97,1.88,2.6,1.88h.02c.89,0,1.9-.32,2.56-.66.47-.82.63-1.77.63-2.73v-8.37l1.04-.8-1.04-1.31ZM771.91,182.49l-1.25-1.39c-.55-.59-1.01-.93-1.35-1.02v-.1c.68-.3,1.61-.47,2.45-.47,1.27,0,2.26.55,2.26,1.35s-.65,1.5-1.71,2.01c-.15-.11-.28-.23-.4-.38Z"/>
      <path class="st4" d="M779.56,176.29l-.95.97-.97-.97-1.14,1.18,1.14,1.14.97-.93.95.93,1.18-1.14-1.18-1.18Z"/>
      <path class="st4" d="M787.21,185.31l-.23-13.17.95-2.28h.37v12.69l-.72,2.75h-.37Z"/>
      <path class="st4" d="M788.93,188.11v-.37c4.37-.23,6.46-1.72,6.46-4.31,0-.14,0-.29-.02-.43l-.62,1.24c-.6.31-1.08.37-1.76.37-1.66,0-2.55-1.01-2.55-2.53,0-1.93,1.39-4.08,2.77-4.08,1.51,0,2.75,2.05,2.75,4.45,0,2.88-1.28,5.24-3.87,7.25l-3.17-1.59ZM793.23,183.04c1.06,0,1.55-.12,2.07-.48-.29-1.57-1.35-2.94-2.5-2.94-.95,0-1.78,1.06-1.78,2.13,0,.93.87,1.28,2.21,1.28Z"/>
      <path class="st4" d="M806.67,171.88l-.93.97-.97-.97-1.14,1.18,1.14,1.14.97-.93.93.93,1.18-1.14-1.18-1.18Z"/>
      <path class="st4" d="M820.56,182.89c-2.68.49-5.09-.53-5.09-2.24,0-1.4,1.23-2.13,2.49-2.13,1.08,0,1.97.27,3.13,1.08l.21-.28c-.76-1.75-1.69-2.39-2.85-2.39-1.8,0-3.57,2.11-3.57,4.27,0,1.01.46,1.8,1.39,2.41-.72.08-1.46.13-2.18.13-1.59,0-2.22-.38-2.22-1.71v-1.92h-.38l-.38,2.92c-.57.42-1.37.7-2.3.7-1.42,0-1.94-.47-1.94-1.8v-6.95h-.38l-.59,1.48-2.47,1.63c-1.58,1.1-2.09,2.09-2.09,3.19,0,1.37.78,2.05,2.35,2.05.65,0,1.23-.13,1.77-.38l.57-1.12v.09c.3,2.51.49,3.38,2.39,3.38.93,0,1.69-.23,2.3-.66l.3-1.22h.08c.1,1.16.97,1.88,2.6,1.88h.02c1.52,0,3.93-.34,5.69-.66l2.54-.55.27-1.52-1.67.3ZM803.91,181.77c-1.14,0-1.92-.49-1.92-1.21,0-.47.36-.89,1.29-1.29l2.39-.97.3,3.04c-.51.25-1.01.44-2.07.44Z"/>
      <path class="st4" d="M812.29,186.8l-.93.97-.99-.97-1.14,1.18,1.14,1.14.99-.93.93.93,1.18-1.14-1.18-1.18Z"/>
      <path class="st4" d="M830.58,176.17l-1.14,1.16,1.14,1.14,1.16-1.14-1.16-1.16Z"/>
      <path class="st4" d="M851.48,171.45v-1.58h-.36c-1.12.61-1.46,1.42-1.01,2.49l.3,11.03c-.68.23-1.29.36-1.77.36-.68,0-1.35-.06-1.99-.08.4-.8.59-1.44.59-2.16,0-1.97-1.31-3.49-3.08-3.49-1.97,0-3.91,1.71-6.53,5.52-.4-.21-.84-.49-1.27-.87l.84-1.23-.28-.23-.74.95c-.84,1.14-1.69,1.59-3.21,1.59-1.59,0-2.2-.38-2.2-1.71v-1.92h-.38l-.4,2.92c-.55.42-1.37.7-2.3.7-1.4,0-1.9-.47-1.9-1.8v-12.07h-.38l-.95,2.28.25,9.79c.02,1.25.23,2.14.63,2.62.38.49,1.03.76,1.99.76s1.69-.23,2.3-.66l.3-1.22h.06c.11,1.16.99,1.88,2.62,1.88h.02c1.08,0,1.96-.49,2.79-1.4,1.31,1.23,2.56,1.73,4.29,1.73,1.58,0,3.4-.32,4.99-.91,1.02.4,2.26.59,3.57.59h.04c.87,0,1.88-.32,2.52-.66.49-.82.65-1.77.65-2.73v-8.37l1.04-.8-1.04-1.31ZM839.9,184.05c-.65,0-1.25-.1-1.78-.3,1.97-2.83,3.55-4.18,5.24-4.18,1.5,0,2.9,1.5,3.17,3.04-1.92.89-4.33,1.44-6.62,1.44Z"/>
      <path class="st4" d="M854.84,185.31l-.23-13.17.95-2.28h.37v12.69l-.72,2.75h-.37Z"/>
      <path class="st4" d="M866.99,171.88l-.93.97-.97-.97-1.14,1.18,1.14,1.14.97-.93.93.93,1.18-1.14-1.18-1.18Z"/>
      <path class="st4" d="M872.61,186.8l-.93.97-.99-.97-1.14,1.18,1.14,1.14.99-.93.93.93,1.18-1.14-1.18-1.18Z"/>
      <path class="st4" d="M888.23,186.84l-1.14,1.16,1.14,1.14,1.16-1.14-1.16-1.16Z"/>
      <path class="st4" d="M889.5,178.79h-.4l-.65,1.44c.74,1.1,1.25,2.26,1.25,3-.61.34-1.48.51-2.66.51-1.8,0-2.64-.46-2.71-1.77.17-.02.36-.02.53-.02h.59l.28-1.61h-1.16c-.51,0-1.61-.34-4.1-1.31-1.92-.8-2.79-1.02-3.44-1.02-1.08,0-1.77.53-1.77,2.13,0,.25.04.49.06.76h.36c.1-.84.57-1.27,1.46-1.27.82,0,1.88.36,2.92.78.95.36,1.94.72,3,.97v.09c-1.2.15-2.37.51-3.93,1.16-1.9.76-3.28,1.12-4.75,1.12-1.59,0-2.22-.38-2.22-1.71v-1.92h-.38l-.38,2.92c-.57.42-1.37.7-2.32.7-1.4,0-1.92-.47-1.92-1.8v-6.95h-.38l-.59,1.48-2.47,1.63c-1.58,1.1-2.09,2.09-2.09,3.19,0,1.37.78,2.05,2.35,2.05.65,0,1.23-.13,1.77-.38l.57-1.12v.09c.3,2.51.49,3.38,2.39,3.38.93,0,1.69-.23,2.3-.66l.3-1.22h.08c.1,1.16.97,1.88,2.6,1.88h.02c1.37,0,2.39-.38,4.63-1.54,2.16-1.1,3.64-1.59,5.05-1.77.11,2.47,1.04,3.3,2.94,3.3,1.16,0,2.35-.28,3.04-.66.38-.78.57-1.78.57-2.75s-.23-1.94-.78-3.11ZM864.24,181.77c-1.14,0-1.92-.49-1.92-1.21,0-.47.36-.89,1.29-1.29l2.39-.97.3,3.04c-.51.25-1.01.44-2.07.44Z"/>
      <path class="st4" d="M901.9,172.76l-1.04.8v8.37c0,.97-.15,1.92-.63,2.73-.66.34-1.69.66-2.58.66-.55,0-1.04-.17-1.46-.53-.27,1.58-.97,3.23-2.16,4.92l-3.4-1.59v-.38c3.21-.06,4.95-1.39,5.13-3.38-.49-.59-1.01-1.52-1.61-2.79l.66-1.44h.36l.91,2.01c.29.63.55,1.04.8,1.27.25.23.65.34,1.16.34.47,0,1.08-.13,1.77-.36l-.3-11.03c-.46-1.06-.11-1.88,1.01-2.49h.36v1.58l1.04,1.31Z"/>
      <path class="st4" d="M904.22,185.31l-.23-13.17.95-2.28h.37v12.69l-.72,2.75h-.37Z"/>
      <path class="st4" d="M919.02,186.8l-.93.97-.99-.97-1.14,1.18,1.14,1.14.99-.93.93.93,1.18-1.14-1.18-1.18Z"/>
      <path class="st4" d="M930.3,182.59l-.27,1.52-2.54.55c-1.77.32-4.21.66-5.71.66-1.92,0-2.51-.84-3-3.49l-.32-1.65c-.57,1.75-1.37,2.51-2.6,2.51-.19,0-.36-.02-.53-.06.02.13.02.28.02.42,0,1.99-.68,4.27-2.32,6.66l-3.42-1.59v-.38c3.25.04,5.14-1.46,5.14-3.59,0-.74-.23-1.33-.72-2.22-.04-.02-.08-.08-.13-.11h.08c-.19-.27-.38-.59-.63-.95l.65-1.44h.36c.65,1.23,1.29,1.69,1.94,1.69.97,0,1.56-.53,2.28-2.18l.42-.91h.36l.38,3.42c.21,1.94.66,2.32,2.41,2.32.74,0,1.48-.06,2.2-.13-.93-.61-1.39-1.4-1.39-2.41,0-2.16,1.77-4.27,3.57-4.27,1.16,0,2.09.65,2.85,2.39l-.21.28c-1.16-.82-2.05-1.08-3.15-1.08-1.23,0-2.47.72-2.47,2.13,0,1.71,2.41,2.73,5.09,2.24l1.67-.3Z"/>
      <path class="st4" d="M926.1,172.98l-1.14,1.16,1.14,1.14,1.16-1.14-1.16-1.16Z"/>
      <path class="st4" d="M936.22,179.04l.37.12c-.19.68-.29,1.26-.29,1.74,0,2.13,1.53,3.15,5.28,3.15,2.38,0,4.72-.37,6.69-1.04-.1-.72-.56-1.76-1.24-2.77l.64-1.45h.37c.58,1.18.81,2.13.81,3.1,0,.91-.17,1.8-.5,2.48-1.84.77-4.39,1.26-6.98,1.26-4.04,0-5.78-1.08-5.78-3.58,0-.81.21-1.8.62-3.02ZM940.01,178.88l1.14-1.18.97.97.93-.97,1.18,1.18-1.18,1.14-.93-.93-.97.93-1.14-1.14Z"/>
      <path class="st4" d="M970.82,174.05l-1.12,1.16,1.12,1.14,1.18-1.14-1.18-1.16Z"/>
      <path class="st4" d="M978.59,176.17l-1.12,1.16,1.12,1.14,1.18-1.14-1.18-1.16Z"/>
      <path class="st4" d="M993.05,171.45v-1.58h-.38c-1.12.61-1.44,1.42-.99,2.49l.28,11.03c-.68.23-1.29.36-1.77.36-.93,0-1.35-.34-1.75-1.2l-.51-.99c-.91-1.78-1.31-2.13-2.15-2.13-1.27,0-2.6,1.69-2.98,3.87-.42.25-1.16.44-1.82.44-1.59,0-2.22-.38-2.22-1.71v-1.92h-.36l-.4,2.92c-.55.42-1.37.7-2.3.7-.68,0-1.37-.02-2.01-.1.4-.76.59-1.42.59-2.14,0-1.97-1.31-3.49-3.08-3.49-1.5,0-2.98.97-4.73,3.09l-.06-.02c.32-.72.4-1.69.4-2.92v-4.59l1.06-.82-1.06-1.33v-1.61h-.32l-.02.06h-.04c-1.06.61-1.4,1.39-1.01,2.41l.27,9.83c-.36.47-.76,1.03-1.18,1.63h-1.01c-.95,0-1.35-.34-1.77-1.2l-.49-.99c-.91-1.78-1.33-2.13-2.16-2.13-1.25,0-2.6,1.69-2.98,3.87-.42.25-1.16.44-1.82.44-1.4,0-1.9-.47-1.9-1.8v-12.07h-.38l-.95,2.28.25,9.79c.02,1.25.23,2.14.63,2.62.38.49,1.02.76,1.99.76.74,0,1.54-.34,2.15-.84,1.14.57,3.02,1.1,4.76,1.4l.42-1.37c.47.59,1.04.8,1.88.8,3.28,0,6.02-.27,8.2-.74,1.16.47,2.49.74,3.99.74h.02c.93,0,1.69-.23,2.28-.66l.32-1.22h.06c.09,1.16.97,1.88,2.6,1.88h.02c.76,0,1.54-.34,2.14-.84,1.14.57,3.02,1.1,4.76,1.4l.4-1.37c.49.59,1.06.8,1.9.8.89,0,1.9-.32,2.56-.66.47-.82.65-1.77.65-2.73v-8.37l1.03-.8-1.03-1.31ZM956.68,183.01c.23-1.06.97-1.84,1.94-1.84.57,0,1.08.49,1.56,1.42l.51,1.01c.13.25.25.46.38.65-1.31-.17-3.21-.7-4.38-1.23ZM965.19,183.73c1.97-2.83,3.55-4.16,5.22-4.16,1.46,0,2.89,1.5,3.19,3.02-2.32.65-5.11,1.03-8.41,1.14ZM983.35,183.01c.23-1.06.99-1.84,1.96-1.84.55,0,1.08.49,1.56,1.42l.51,1.01c.11.25.25.46.38.65-1.31-.17-3.23-.7-4.4-1.23Z"/>
      <path class="st4" d="M996.4,185.31l-.23-13.17.95-2.28h.37v12.69l-.72,2.75h-.37Z"/>
      <path class="st4" d="M1016.66,186.8l-.93.97-.97-.97-1.14,1.18,1.14,1.14.97-.93.93.93,1.18-1.14-1.18-1.18ZM1007.52,180.08l-1.14,1.16,1.14,1.14,1.16-1.14-1.16-1.16Z"/>
      <path class="st4" d="M1045.97,171.45v-1.58h-.36c-1.12.61-1.46,1.42-1.01,2.49l.3,11.03c-.68.23-1.29.36-1.77.36-1.59,0-2.22-.38-2.22-1.71v-1.92h-.36l-.4,2.92c-.57.42-1.37.7-2.3.7s-1.35-.34-1.77-1.2l-.49-.99c-.91-1.78-1.33-2.13-2.14-2.13-1.27,0-2.62,1.69-2.98,3.87-.42.25-1.18.44-1.82.44-1.5,0-2.13-.59-3.11-2.83-1.59-3.53-2.51-4.73-4.75-6.02l7.48-3.3,1.12-1.63-.13-.27-7.16,3.15c-.74.36-1.03.65-1.37,1.4l-.76,1.73c2.07,1.31,3.08,2.58,4.16,5.16.27.61.49,1.16.74,1.59-1.52.65-3.26,1.01-5.09,1.01-1.73,0-2.22-.38-2.43-2.32l-.38-3.42h-.36l-.42.91c-.72,1.65-1.29,2.18-2.26,2.18-.72,0-1.46-.46-2.32-1.69h-.38l-.63,1.44c.99,2.22,1.42,3.57,1.52,4.95-1.18.97-2.85,1.58-4.69,1.58-2.49,0-3.57-1.2-3.57-3.32,0-.72.13-1.56.4-2.51l-.36-.11c-.49,1.33-.72,2.58-.72,3.66,0,2.56,1.23,4.18,4.1,4.18,2.05,0,3.95-.76,5.14-1.96.32-1.29.34-1.61.34-2.98,0-.59-.06-1.2-.17-1.84.3.11.59.17.87.17,1.25,0,2.05-.78,2.62-2.54l.32,1.69c.46,2.66,1.08,3.49,2.98,3.49s3.64-.36,5.32-1.06l.3-1.1h.06c.95,1.69,1.73,2.16,3.19,2.16h.04c.72-.02,1.54-.34,2.11-.84,1.14.57,3.04,1.1,4.76,1.4l.42-1.37c.47.59,1.06.8,1.88.8.93,0,1.71-.23,2.3-.66l.32-1.22h.06c.1,1.16.97,1.88,2.6,1.88h.02c.89,0,1.9-.32,2.56-.66.47-.82.63-1.77.63-2.73v-8.37l1.04-.8-1.04-1.31ZM1031.01,183.01c.23-1.06.97-1.84,1.94-1.84.57,0,1.08.49,1.56,1.42l.51,1.01c.13.25.27.46.38.65-1.31-.17-3.21-.7-4.38-1.23Z"/>
      <path class="st4" d="M1041.68,176.29l-.95.97-.97-.97-1.14,1.18,1.14,1.14.97-.93.95.93,1.18-1.14-1.18-1.18Z"/>
    </g>
    <g>
      <path class="st4" d="M733.88,208.98v-.39l1.74-.29v-11.82l-1.74-.31v-.35h5.17v.35l-1.74.31v11.82l1.74.29v.39h-5.17Z"/>
      <path class="st4" d="M740.06,208.98v-.33l1.41-.29v-7.11l-1.34-.6v-.14l2.65-.93h.06l.06,1.78h.04c.25-.31,1.84-1.84,3.47-1.84s2.54.83,2.54,3.25v5.6l1.24.29v.33h-3.93v-.33l1.2-.29v-5.6c0-1.22-.6-2.21-1.84-2.21-1.14,0-2.13.76-2.69,1.2v6.61l1.32.29v.33h-4.2Z"/>
      <path class="st4" d="M758.18,199.87v-4.05l-1.51-.6v-.14l2.98-.89v13.95l1.36.39v.25l-2.67.39-.12-1.36c-.68.72-1.72,1.45-3.02,1.45-2.58,0-3.91-2.11-3.91-4.47,0-3.31,2.67-5.27,5.19-5.27.72,0,1.3.19,1.7.35ZM756.07,208.28c.89,0,1.59-.48,2.11-.91v-6.14c-.6-.72-1.34-1.1-2.42-1.1-.81,0-1.51.33-2.09,1.01-.58.68-.87,1.67-.87,2.98,0,1.63.87,4.15,3.27,4.15Z"/>
      <path class="st4" d="M762.68,206.17v-5.37l-1.28-.39v-.25l2.75-.52v6.08c0,1.8.87,2.46,2.09,2.46.56,0,1.05-.12,1.45-.39.39-.25.72-.48.95-.66v-6.33l-1.53-.39v-.25l3-.52v8.5l1.36.39v.25l-2.65.39-.17-1.72c-.45.58-1.61,1.8-3.25,1.8-1.98,0-2.73-1.47-2.73-3.08Z"/>
      <path class="st4" d="M772.96,208.61l-.14-2.89h.35l.95,2.5c.35.35.89.54,1.59.54,1.22,0,1.98-.83,1.98-1.82,0-.91-.48-1.41-1.7-1.84l-.93-.33c-1.34-.5-2.03-1.22-2.03-2.56,0-1.63,1.55-2.69,3.37-2.69.81,0,1.61.29,2.27.64v2.48h-.35l-.79-2.09c-.33-.27-.77-.56-1.36-.56-1.1,0-1.78.81-1.78,1.69s.54,1.36,1.67,1.8l.83.31c1.65.64,2.27,1.41,2.27,2.46,0,1.84-1.84,3-3.7,3-1.08,0-2.05-.37-2.52-.64Z"/>
      <path class="st4" d="M781.4,207.12l.04-6.57h-1.55v-.37l1.59-.41,1.01-2.48h.39v2.52h2.85v.74h-2.85v6.47c.06.85.62,1.28,1.47,1.28.66,0,1.34-.25,1.57-.33l.08.23c-.43.35-1.32.97-2.56.97-1.34,0-2.05-.54-2.05-2.05Z"/>
      <path class="st4" d="M786.75,208.98v-.33l1.41-.29v-7.11l-1.34-.6v-.14l2.65-.93h.06l.04,2.69h.06l.21-.45c.43-.89.85-1.49,1.2-1.8s.7-.45,1.1-.45c.5,0,.89.33.89.83,0,.41-.21.68-.48.95l-1.34-.41c-.58.35-1.24,1.24-1.57,2.21v5.23l1.55.29v.33h-4.42Z"/>
      <path class="st4" d="M793.66,208.98v-.33l1.41-.29v-7.11l-1.34-.6v-.14l2.81-.99v8.85l1.39.29v.33h-4.26ZM794.65,196.19c0-.58.48-1.05,1.05-1.05s1.05.48,1.05,1.05-.48,1.05-1.05,1.05-1.05-.48-1.05-1.05Z"/>
      <path class="st4" d="M798.93,207.02c0-1.55,1.16-2.23,3.12-2.75l2.09-.58v-.93c0-1.76-.83-2.67-1.96-2.67-.6,0-1.08.21-1.34.48l-.1,1.86c-.19.1-.43.17-.7.17-.52,0-.87-.31-.87-.79,0-.91,1.63-2.29,3.7-2.29s2.75.99,2.75,2.73v5.56c0,.39.1.62.62.62h.99v.27s-1.03.54-1.8.54c-.93,0-1.32-.48-1.3-1.57h-.04c-.91.97-1.7,1.59-2.85,1.59-.97,0-2.29-.54-2.29-2.23ZM800.87,207.7c.25.35.66.54,1.26.54.83,0,1.57-.64,2.01-1.24v-2.91l-2.25.79c-1.1.39-1.41.99-1.41,1.72,0,.39.12.76.39,1.12Z"/>
      <path class="st4" d="M807.67,208.98v-.33l1.2-.29v-12.53l-1.24-.62v-.14l2.71-.89v14.18l1.26.29v.33h-3.93Z"/>
      <path class="st4" d="M816.52,207.02c0-1.55,1.16-2.23,3.12-2.75l2.09-.58v-.93c0-1.76-.83-2.67-1.96-2.67-.6,0-1.08.21-1.34.48l-.1,1.86c-.19.1-.43.17-.7.17-.52,0-.87-.31-.87-.79,0-.91,1.63-2.29,3.7-2.29s2.75.99,2.75,2.73v5.56c0,.39.1.62.62.62h.99v.27s-1.03.54-1.8.54c-.93,0-1.32-.48-1.3-1.57h-.04c-.91.97-1.7,1.59-2.85,1.59-.97,0-2.29-.54-2.29-2.23ZM818.47,207.7c.25.35.66.54,1.26.54.83,0,1.57-.64,2.01-1.24v-2.91l-2.25.79c-1.1.39-1.41.99-1.41,1.72,0,.39.12.76.39,1.12Z"/>
      <path class="st4" d="M825.27,208.98v-.33l1.41-.29v-7.11l-1.34-.6v-.14l2.65-.93h.06l.06,1.78h.04c.25-.31,1.84-1.84,3.47-1.84s2.54.83,2.54,3.25v5.6l1.24.29v.33h-3.93v-.33l1.2-.29v-5.6c0-1.22-.6-2.21-1.84-2.21-1.14,0-2.13.76-2.69,1.2v6.61l1.32.29v.33h-4.2Z"/>
      <path class="st4" d="M843.38,199.87v-4.05l-1.51-.6v-.14l2.98-.89v13.95l1.36.39v.25l-2.67.39-.12-1.36c-.68.72-1.72,1.45-3.02,1.45-2.58,0-3.91-2.11-3.91-4.47,0-3.31,2.67-5.27,5.19-5.27.72,0,1.3.19,1.7.35ZM841.27,208.28c.89,0,1.59-.48,2.11-.91v-6.14c-.6-.72-1.34-1.1-2.42-1.1-.81,0-1.51.33-2.09,1.01-.58.68-.87,1.67-.87,2.98,0,1.63.87,4.15,3.27,4.15Z"/>
      <path class="st4" d="M850.8,208.98v-.33l1.67-.41.43-11.7-1.65-.39v-.33h3.84l3.97,10.09,4.03-10.03.02-.06h3.39v.33l-1.65.37.43,11.72,1.67.41v.33h-5.35v-.37l2.03-.37-.37-11.14-4.09,10.05-.54,1.45h-.27l-.56-1.45-4.26-10.42-.37,11.45,2.19.45v.35h-4.57Z"/>
      <path class="st4" d="M867.88,208.98v-.33l1.41-.29v-7.11l-1.34-.6v-.14l2.81-.99v8.85l1.39.29v.33h-4.26ZM868.88,196.19c0-.58.48-1.05,1.05-1.05s1.05.48,1.05,1.05-.48,1.05-1.05,1.05-1.05-.48-1.05-1.05Z"/>
      <path class="st4" d="M872.85,208.98v-.33l1.41-.29v-7.11l-1.34-.6v-.14l2.65-.93h.06l.06,1.78h.04c.25-.31,1.84-1.84,3.47-1.84s2.54.83,2.54,3.25v5.6l1.24.29v.33h-3.93v-.33l1.2-.29v-5.6c0-1.22-.6-2.21-1.84-2.21-1.14,0-2.13.76-2.69,1.2v6.61l1.32.29v.33h-4.2Z"/>
      <path class="st4" d="M883.7,208.98v-.33l1.41-.29v-7.11l-1.34-.6v-.14l2.81-.99v8.85l1.39.29v.33h-4.26ZM884.69,196.19c0-.58.48-1.05,1.05-1.05s1.05.48,1.05,1.05-.48,1.05-1.05,1.05-1.05-.48-1.05-1.05Z"/>
      <path class="st4" d="M888.66,208.98v-.33l1.41-.29v-7.11l-1.34-.6v-.14l2.65-.93h.06l.06,1.78h.04c.25-.31,1.84-1.84,3.47-1.84s2.54.83,2.54,3.25v5.6l1.24.29v.33h-3.93v-.33l1.2-.29v-5.6c0-1.22-.6-2.21-1.84-2.21-1.14,0-2.13.76-2.69,1.2v6.61l1.32.29v.33h-4.2Z"/>
      <path class="st4" d="M899.54,211.42c0-.83.77-1.72,1.7-2.19l.5-.27v-.06c-.39-.02-.74-.14-1.1-.37-.35-.21-.54-.54-.54-1.01,0-.72.7-1.26,1.3-1.78v-.04c-.83-.52-1.41-1.41-1.41-2.71,0-2.07,1.55-3.41,3.49-3.41.89,0,1.47.21,2.19.52l2.79-.29v.89h-2.38v.04c.41.43.95,1.14.95,2.15,0,2.07-1.9,3.35-3.66,3.35-.52,0-1.1-.1-1.59-.35-.35.31-.52.62-.52.93,0,.41.35.72.95.79l3.84.27c1.49.1,2.34.91,2.34,1.98,0,1.98-2.71,3.93-5.46,3.93-2.01,0-3.41-.79-3.41-2.36ZM903.88,213.08c2.36,0,3.2-1.51,3.2-2.5,0-.72-.52-1.16-1.16-1.3l-3.84-.25c-.48.43-1.01,1.01-1.01,1.9,0,1.22.97,2.15,2.81,2.15ZM903.63,205.76c1.01,0,1.82-.99,1.82-2.5,0-1.18-.21-2.03-.62-2.54-.41-.5-.91-.74-1.47-.76-1.16,0-1.8.99-1.8,2.38,0,2.21.81,3.43,2.07,3.43Z"/>
      <path class="st4" d="M924.39,209.11l-8.93-11.58v10.67l2.23.37v.41h-4.61v-.39l1.74-.43v-11.12c-.35-.39-.81-.68-1.45-.79l-.29-.08v-.35h3.12l7.79,10.07v-9.28l-2.07-.37v-.41h4.44v.39l-1.72.43v9.78l.08,2.69h-.35Z"/>
      <path class="st4" d="M927.2,204.46c0-1.05.23-1.94.7-2.67.91-1.47,2.46-2.27,3.95-2.27,2.69,0,4.61,1.96,4.61,4.77,0,1.05-.23,1.94-.68,2.67-.93,1.49-2.48,2.29-3.99,2.29-2.52,0-4.59-1.82-4.59-4.8ZM928.77,204c0,2.69,1.45,4.73,3.29,4.73,1.72,0,2.79-1.74,2.79-3.97,0-2.69-1.41-4.73-3.29-4.73-1.72,0-2.79,1.74-2.79,3.97Z"/>
      <path class="st4" d="M937.58,208.98v-.33l1.41-.29v-7.11l-1.34-.6v-.14l2.65-.93h.06l.06,1.78h.04c.25-.31,1.84-1.84,3.47-1.84s2.54.83,2.54,3.25v5.6l1.24.29v.33h-3.93v-.33l1.2-.29v-5.6c0-1.22-.6-2.21-1.84-2.21-1.14,0-2.13.76-2.69,1.2v6.61l1.32.29v.33h-4.2Z"/>
      <path class="st4" d="M949.14,204.27v-1.1h5.02v1.1h-5.02Z"/>
      <path class="st4" d="M958.17,209.03v4.11l1.98.25v.35h-4.67v-.37l1.22-.27v-11.76l-1.32-.58v-.14l2.63-.93h.06l.06,1.72h.02c.66-.93,1.65-1.86,3.08-1.86,1.76,0,3.6,1.24,3.6,4.42s-2.87,5.27-5.31,5.27c-.52,0-.95-.1-1.34-.21ZM958.17,201.96v5.95c.43.31,1.12.64,2.03.64,1.7,0,3.14-1.36,3.14-4.32,0-2.05-1.26-3.64-2.91-3.64-1.16,0-1.92.83-2.25,1.36Z"/>
      <path class="st4" d="M966.07,208.98v-.33l1.41-.29v-7.11l-1.34-.6v-.14l2.65-.93h.06l.04,2.69h.06l.21-.45c.43-.89.85-1.49,1.2-1.8.35-.31.7-.45,1.1-.45.5,0,.89.33.89.83,0,.41-.21.68-.48.95l-1.34-.41c-.58.35-1.24,1.24-1.57,2.21v5.23l1.55.29v.33h-4.42Z"/>
      <path class="st4" d="M972.98,204.46c0-1.05.23-1.94.7-2.67.91-1.47,2.46-2.27,3.95-2.27,2.69,0,4.61,1.96,4.61,4.77,0,1.05-.23,1.94-.68,2.67-.93,1.49-2.48,2.29-3.99,2.29-2.52,0-4.59-1.82-4.59-4.8ZM974.55,204c0,2.69,1.45,4.73,3.29,4.73,1.72,0,2.79-1.74,2.79-3.97,0-2.69-1.41-4.73-3.29-4.73-1.72,0-2.79,1.74-2.79,3.97Z"/>
      <path class="st4" d="M983.21,208.98v-.33l1.41-.29v-7.81h-1.53v-.37l1.55-.39c0-3.6,1.82-5.56,4.24-5.56,1.36,0,2.46.85,2.46,1.69,0,.64-.48.95-1.14.95-.14,0-.31-.04-.31-.04l-.33-1.53c-.23-.23-.56-.56-1.32-.56-1.08,0-2.21.85-2.17,3.62l.02,1.45h4.42l.79-.29v8.85l1.39.29v.33h-4.03v-.33l1.18-.29v-7.9h-3.74v7.9l1.59.29v.33h-4.47Z"/>
      <path class="st4" d="M994.61,207.12l.04-6.57h-1.55v-.37l1.59-.41,1.01-2.48h.39v2.52h2.85v.74h-2.85v6.47c.06.85.62,1.28,1.47,1.28.66,0,1.34-.25,1.57-.33l.08.23c-.43.35-1.32.97-2.56.97-1.34,0-2.05-.54-2.05-2.05Z"/>
      <path class="st4" d="M1000.44,208.61l-.14-2.89h.35l.95,2.5c.35.35.89.54,1.59.54,1.22,0,1.98-.83,1.98-1.82,0-.91-.48-1.41-1.7-1.84l-.93-.33c-1.34-.5-2.03-1.22-2.03-2.56,0-1.63,1.55-2.69,3.37-2.69.81,0,1.61.29,2.27.64v2.48h-.35l-.79-2.09c-.33-.27-.77-.56-1.36-.56-1.1,0-1.78.81-1.78,1.69s.54,1.36,1.67,1.8l.83.31c1.65.64,2.27,1.41,2.27,2.46,0,1.84-1.84,3-3.7,3-1.08,0-2.05-.37-2.52-.64Z"/>
      <path class="st4" d="M1011.79,208.98v-.37l1.74-.29v-11.87l-1.74-.31v-.33h5.19v.33l-1.76.31v5.35h6.74v-5.35l-1.74-.31v-.33h5.17v.33l-1.74.31v11.87l1.74.29v.37h-5.17v-.37l1.74-.29v-5.93h-6.74v5.93l1.76.29v.37h-5.19Z"/>
      <path class="st4" d="M1027.29,206.17v-5.37l-1.28-.39v-.25l2.75-.52v6.08c0,1.8.87,2.46,2.09,2.46.56,0,1.05-.12,1.45-.39.39-.25.72-.48.95-.66v-6.33l-1.53-.39v-.25l3-.52v8.5l1.36.39v.25l-2.65.39-.17-1.72c-.45.58-1.61,1.8-3.25,1.8-1.98,0-2.73-1.47-2.73-3.08Z"/>
      <path class="st4" d="M1038.34,208.67l-.43-.23v-12.59l-1.28-.62v-.14l2.75-.91v6.9c.56-.6,1.65-1.57,3.06-1.57,1.8,0,3.6,1.24,3.6,4.42,0,2.83-2.6,5.31-5.35,5.31-.85,0-1.61-.19-2.34-.58ZM1039.37,207.83c.48.41,1.14.72,2.03.72,1.63,0,3.14-1.3,3.14-4.36,0-2.11-1.36-3.7-2.87-3.7-1.08,0-1.92.81-2.29,1.18v6.16Z"/>
    </g>
    <g>
      <path class="st4" d="M920.25,115.05v-.29c-4.17-.3-7.47-.66-10.62-.66-2.56,0-3.88,1.54-4.1,4.54h-1.32c-.07-.95-.15-1.83-.15-2.71,0-5.49,1.83-7.54,6-7.54.44,0,1.24.08,2.42.15,1.1.14,3.22.36,6.37.73,5.2.59,9.88.95,15.38.95h3.59l-.95,5.2c-20.87.88-32.51,9.81-32.51,21.89,0,10.4,9.74,16.33,22.63,16.33,3.88,0,7.69-.44,11.57-1.39l.29,1.32-15.08,5.93c-12.6,0-22.12-7.76-22.12-19.62,0-10.47,7.4-20.14,18.6-24.82ZM916.88,136.14l4.03-4.1,4.1,4.1-4.1,4.03-4.03-4.03Z"/>
      <path class="st4" d="M1045.99,131.05c0,3.44-.65,7.02-2.05,9.74-2.41,1.39-6.59,2.33-10.69,2.33h-8.2c-5.81-.02-8.85-2.51-9.21-6.59h-.23l-1.1,4.25c-2.13,1.54-4.82,2.33-8.12,2.33h-53.28c-3.36,0-5.71-.87-7.02-2.64-1.4-1.67-2.13-4.82-2.2-9.3l-.87-34.62,3.36-8.07h1.33v42.69c0,4.69,1.75,6.38,6.72,6.38h53.3c3.3,0,6.13-.95,8.12-2.49l1.39-10.33h1.31v6.81c0,4.67,2.2,6,7.84,6h8.2c4.16,0,7.25-.59,9.36-1.77,0-2.64-1.75-6.74-4.38-10.61l2.28-5.13h1.39c1.97,4.18,2.77,7.54,2.77,10.99Z"/>
      <path class="st4" d="M1012.18,99.63l11.35-5.86v3.08l-11.35,5.86v-3.08Z"/>
      <path class="st4" d="M1021.18,111.2l-3.28,3.44-3.45-3.44-4.02,4.18,4.02,4.02,3.45-3.28,3.28,3.28,4.18-4.02-4.18-4.18Z"/>
      <path class="st4" d="M1035.97,94.36l11.35-5.86v3.08l-11.35,5.86v-3.08Z"/>
      <path class="st4" d="M1041.61,106.07l-4.02,4.1,4.02,4.02,4.1-4.02-4.1-4.1Z"/>
    </g>
  </g>
  <g>
    <polygon class="st4" points="103.33 98.06 105.73 95.52 108.27 98.06 108.7 98.06 111.63 94.99 108.56 91.97 108.2 91.97 105.73 94.47 103.19 91.97 102.8 91.97 99.83 94.99 102.9 98.06 103.33 98.06"/>
    <path class="st4" d="M101.39,120.49c1.58,0,3.14-.41,4.48-1.22.29-.98.48-1.99.67-2.93h0c.84,5.3,2.69,7.46,6.98,7.46h81.89c5.37-.1,10.72-.91,15.9-2.4l3.69-1.13,1.2-4.8-.24-.19-3.74.94c-6,1.51-12.13-.48-12.13-4.1,0-2.93,3.02-4.24,5.95-4.24,2.59,0,5.11.84,7.19,2.4l.91-1.08c-1.85-3.98-4.2-6.09-7.19-6.09-4.46,0-8.61,4.8-8.61,10.05,0,2.18.96,4.24,2.59,5.68-1.56.12-3.38.17-5.42.17h-80.96c-3.67,0-4.63-1.53-5.06-5.78l-1.46-12.52h-1.39l-1.56,3.91-3.88,2.71c-4.39,2.97-6.09,5.01-6.09,7.94s2.4,5.23,6.28,5.23ZM100.16,110.77l5.28-2.61.96,6.52c-1.58.7-3.29,1.03-5.01.96-2.64,0-4.39-.67-4.39-1.8s1.03-2.04,3.17-3.07Z"/>
    <path class="st4" d="M230.42,123.8h35.16c1.75-.05,3.43-.67,4.8-1.73.31-.84.55-1.7.74-2.59h0c.62,2.59,3.14,4.34,6.95,4.34h10.22c2.01-.05,3.93-.91,5.32-2.4,3.45,2.16,7.48,3.21,11.56,3.09,4.53.07,9.06-.74,13.29-2.4,2.23,1.08,4.7,1.63,7.19,1.56h0c2.85,0,5.64-.79,8.08-2.28.86-2.11,1.29-4.34,1.29-6.62v-17.94l2.4-1.8v-.02l-2.4-2.88v-3.62h-1.32c-3.05,2.04-3.69,4.39-2.13,6.91l.7,22.42c-1.8.7-3.72,1.03-5.66,1.03-1.46-.02-2.9-.12-4.34-.31.65-1.58,1.01-3.29,1.03-5.01.12-4.12-3.14-7.58-7.27-7.7h-.31c-4.8,0-9.76,3.86-15.99,13.02-1.1-.29-2.18-.72-3.19-1.22l2.25-3.36-1.22-.89-1.56,2.13c-1.61,2.47-4.48,3.79-7.41,3.45h-9.35c-4.1,0-5.42-.84-5.42-3.72v-4.36h-1.51l-1.15,6.83c-1.68.84-3.55,1.22-5.42,1.13h-34.27c-4.08,0-5.49-1.08-5.49-4.15v-26.21h-1.39l-2.4,4.58.6,21.73c.22,6.57,2.21,8.97,7.63,8.97ZM313.68,110.77c3.5.19,6.55,2.49,7.65,5.83-5.11,2.06-10.58,3.09-16.07,3.02-1.25,0-2.49-.14-3.72-.38,4.58-5.92,8.15-8.51,12.13-8.51v.05Z"/>
    <polygon class="st4" points="273.3 107.32 276.23 104.25 273.16 101.23 272.77 101.23 269.8 104.25 272.87 107.32 273.3 107.32"/>
    <polygon class="st4" points="345.46 123.75 346.92 118.38 346.92 88.52 345.41 88.52 343.13 93.1 343.95 123.75 345.46 123.75"/>
    <polygon class="st4" points="366.42 102.16 368.82 99.62 371.38 102.16 371.81 102.16 374.74 99.1 371.67 96.07 371.29 96.07 368.82 98.59 366.27 96.07 365.89 96.07 362.92 99.1 365.99 102.16 366.42 102.16"/>
    <path class="st4" d="M368.6,124.51c4.8,0,7.46-3.45,7.46-8.75,0-4.63-2.23-7.46-10.58-11.13l-.19.14v4.8c-2.16,2.33-3.45,5.3-3.69,8.47-.17,3.43,2.49,6.35,5.95,6.52.34,0,.7,0,1.06-.05ZM367.23,110.92c5.13,2.25,7.03,4.2,7.03,5.8s-2.04,2.93-5.42,2.93-5.44-1.13-5.44-2.97c.46-2.35,1.82-4.44,3.84-5.76Z"/>
    <path class="st4" d="M376.01,130.7v1.51l8.92,2.88c4.03-4.87,6.35-10.94,6.67-17.24-.19-3.67-1.37-7.24-3.41-10.29h-1.32l-1.61,4.1c3.41,4.15,4.53,6.23,4.53,8.82-.05,4.36-5.01,8.11-13.79,10.22Z"/>
    <polygon class="st4" points="399.85 123.75 401.31 118.38 401.31 88.52 399.8 88.52 397.54 93.1 398.34 123.75 399.85 123.75"/>
    <path class="st4" d="M416.56,117.85c-.17-3.67-1.34-7.24-3.41-10.29h-1.32l-1.65,4.1c3.41,4.15,4.53,6.23,4.53,8.82,0,4.36-4.94,8.03-13.74,10.22v1.51l8.94,2.88c4.03-4.87,6.35-10.94,6.64-17.24Z"/>
    <polygon class="st4" points="412.12 103.96 415.05 100.89 411.98 97.87 411.62 97.87 408.62 100.89 411.72 103.96 412.12 103.96"/>
    <path class="st4" d="M435.62,117.37c0-6.33-3.17-11.51-7.19-11.51-3.43,0-7.03,5.06-7.03,9.81-.31,3.17,2.01,5.97,5.18,6.28.36.02.7.02,1.06,0,1.53.05,3.05-.29,4.39-.98l1.37-3.55c.19.79.29,1.58.29,2.4,0,5.37-5.76,9.16-15.83,10.91v1.51l8.9,2.88c5.18-4.51,8.37-10.89,8.87-17.75ZM428.17,117.1c-3.07,0-4.8-.72-4.8-2.4.02-2.18,1.73-3.96,3.91-4.05,2.4,0,4.8,2.59,5.95,5.76-1.63.5-3.33.74-5.06.7h0Z"/>
    <polygon class="st4" points="108.2 145.74 105.73 148.23 103.19 145.74 102.8 145.74 99.83 148.76 102.9 151.83 103.33 151.83 105.73 149.26 108.27 151.83 108.7 151.83 111.63 148.76 108.56 145.74 108.2 145.74"/>
    <polygon class="st4" points="164.34 181.76 163.95 181.76 161.48 184.27 158.94 181.76 158.56 181.76 155.58 184.78 158.65 187.85 159.08 187.85 161.48 185.3 164.05 187.85 164.48 187.85 167.4 184.78 164.34 181.76"/>
    <path class="st4" d="M187.09,177.51h9.35c3.02-.05,6-.77,8.68-2.16.82-2.13,1.25-4.41,1.22-6.69-.12-2.61-.94-5.13-2.4-7.31h-1.32l-1.65,4.1c1.56,1.68,2.73,3.65,3.5,5.8-2.54,1.01-5.25,1.49-7.99,1.41h-27.91c-4.1,0-5.44-.84-5.44-3.72v-4.39h-1.51l-1.13,6.86c-1.68.84-3.55,1.22-5.42,1.13h-40.53c-3.67.1-4.63-1.32-5.06-5.59l-1.46-12.52h-1.39l-1.56,3.91-3.88,2.73c-4.39,2.97-6.09,4.99-6.09,7.94s2.4,5.13,6.28,5.13c1.58,0,3.12-.43,4.48-1.22.29-.98.48-1.99.67-2.93h0c.74,5.23,2.59,7.36,6.88,7.36h41.49c1.73-.07,3.41-.67,4.8-1.73.31-.89.5-1.75.74-2.59h0c.62,2.59,3.14,4.32,6.93,4.34h19.57l.14.12ZM101.39,169.36c-2.64,0-4.39-.65-4.39-1.8s1.03-2.01,3.17-3.07l5.28-2.59.96,6.52c-1.58.67-3.29,1.01-5.01.94Z"/>
    <polygon class="st4" points="199.63 154.66 202.7 157.73 203.14 157.73 206.06 154.66 202.99 151.64 202.61 151.64 199.63 154.66"/>
    <path class="st4" d="M303.95,142.28h-1.32c-3.02,2.04-3.69,4.39-2.13,6.88l.72,22.45c-1.82.67-3.72,1.03-5.66,1.03-2.13.24-4.17-.98-4.96-2.97l-1.03-2.04c-1.89-3.57-3.17-4.8-5.2-4.8-3.12,0-6.04,3.74-7.05,8.61-1.39.74-2.95,1.1-4.53,1.08-2.71.19-5.4-.6-7.55-2.25,2.4-2.04,3.5-3.55,3.5-5.16,0-2.73-2.16-4.24-5.61-4.24-2.11.07-4.17.65-6,1.7l-1.34,4.12.55,1.22c1.85-.07,3.62.84,4.63,2.4l.14.24c-2.52,1.37-5.32,2.04-8.18,2.01h-18.73c-3.6,0-5.35-1.7-7.19-7.03l-3.43-9.98h-1.27l-1.63,4.2,3.33,8.25c.58,1.37,1.1,2.57,1.61,3.6-1.97,1.25-4.27,1.87-6.59,1.8-4.27,0-5.4-.77-5.59-3.69v-.74h-1.41c-.36,1.29-.58,2.61-.65,3.96,0,3.55,2.06,5.3,6.69,5.3,2.69.07,5.3-.77,7.43-2.4.26-1.03.5-2.04.65-2.97h.19c1.97,3.45,3.93,4.8,6.79,4.8h19.54c3.76-.41,7.27-2.09,9.93-4.8,2.09,3.02,5.49,4.8,9.16,4.8h0c2.06-.07,4.03-.84,5.61-2.18,3.38,1.68,7,2.83,10.72,3.48.46-1.18.86-2.35,1.2-3.57,1.27,1.58,3.21,2.42,5.23,2.25h0c2.88,0,5.71-.77,8.18-2.25.84-2.11,1.27-4.34,1.27-6.62v-18.15l2.4-1.8v-.14l-2.4-2.88v-3.5ZM279.11,171.06c.38-1.89,1.97-3.31,3.88-3.5,1.37,0,2.4.82,3.67,3.17l1.1,2.04c.22.41.43.79.7,1.18-3.21-.53-6.35-1.46-9.35-2.76v-.12Z"/>
    <polygon class="st4" points="314.38 177.51 315.84 172.14 315.84 142.28 314.33 142.28 312.08 146.86 312.87 177.51 314.38 177.51"/>
    <path class="st4" d="M337.52,178.28c4.8,0,7.46-3.45,7.46-8.75,0-4.63-2.21-7.46-10.58-11.15l-.19.14v4.8c-2.13,2.33-3.43,5.3-3.67,8.44-.19,3.43,2.45,6.38,5.9,6.57.36,0,.72,0,1.08-.05ZM336.15,164.56c5.16,2.4,7.03,4.22,7.03,5.83s-2.01,2.93-5.42,2.93-5.44-1.15-5.44-2.97c.46-2.35,1.85-4.44,3.84-5.78Z"/>
    <polygon class="st4" points="334.84 149.84 331.86 152.86 334.93 155.93 335.36 155.93 337.76 153.39 340.3 155.93 340.73 155.93 343.66 152.86 340.59 149.84 340.21 149.84 337.76 152.33 335.22 149.84 334.84 149.84"/>
    <path class="st4" d="M356.92,159.62c-3.43,0-7.03,5.04-7.03,9.81-.31,3.14,1.97,5.97,5.13,6.28.36.05.74.05,1.1,0,1.51.05,3.02-.29,4.39-.98l1.37-3.55c.19.79.29,1.58.29,2.4,0,5.37-5.76,9.16-15.83,10.91v1.51l8.87,2.88c5.16-4.51,8.32-10.89,8.8-17.72,0-6.35-3.17-11.53-7.1-11.53ZM356.49,170.84c-3.07,0-4.8-.7-4.8-2.4,0-2.18,1.73-3.96,3.91-4.05,2.4,0,4.8,2.59,5.95,5.76-1.63.5-3.36.74-5.06.7Z"/>
    <polygon class="st4" points="387.52 150.22 390.33 147.39 387.45 144.56 387.06 144.56 384.26 147.39 387.16 150.22 387.52 150.22"/>
    <polygon class="st4" points="389.85 149.93 387.4 152.43 384.83 149.93 384.45 149.93 381.48 152.96 384.55 156.02 384.98 156.02 387.4 153.48 389.94 156.02 390.37 156.02 393.3 152.96 390.23 149.93 389.85 149.93"/>
    <path class="st4" d="M394.21,177.51h0c2.85,0,5.66-.79,8.13-2.25.84-2.11,1.27-4.34,1.27-6.62v-18.03l2.4-1.8v-.14l-2.4-2.88v-3.5h-1.32c-3.02,2.04-3.69,4.39-2.13,6.88l.72,22.45c-1.82.67-3.74,1.03-5.68,1.03-3.62,0-4.8-1.41-5.61-5.66l-1.18-7.36h-1.27l-.62,1.7c-1.37,4-3.07,5.04-5.01,5.04-2.21-.24-4.2-1.49-5.32-3.41h-1.32l-1.58,4.17c3.07,2.88,4.53,5.18,4.53,7.19,0,4.24-4.96,7.94-13.74,10.07v1.51l8.92,2.88c4.03-4.87,6.35-10.94,6.67-17.24v-.53c.43.1.86.14,1.32.14,2.4,0,4.48-1.7,5.37-5.47l.53,2.97c1.22,6.67,2.88,8.75,7.36,8.78h0l-.02.07Z"/>
    <polygon class="st4" points="415.53 172.14 415.53 142.28 414.02 142.28 411.74 146.86 412.56 177.51 414.07 177.51 415.53 172.14"/>
    <path class="st4" d="M418.5,184.47v1.51l8.87,2.88c5.16-4.51,8.32-10.89,8.8-17.72,0-6.33-3.17-11.51-7.19-11.51-3.45,0-7.03,5.04-7.03,9.81-.31,3.14,1.97,5.97,5.13,6.28.36.05.74.05,1.1,0,1.51.05,3.02-.29,4.39-.98l1.37-3.55c.19.79.29,1.58.29,2.4.1,5.37-5.66,9.14-15.73,10.89ZM428.69,170.84c-3.07,0-4.8-.7-4.8-2.4,0-2.18,1.73-3.96,3.91-4.05,2.4,0,4.8,2.59,5.95,5.76-1.63.5-3.36.74-5.06.7Z"/>
    <polygon class="st4" points="108.82 200.65 110.36 200.22 110.36 199.57 106.28 199.57 106.18 200.41 103.02 208.18 99.2 199.57 95.25 199.57 95.25 200.22 96.78 200.65 96.71 210.51 95.18 210.94 95.18 211.59 99.83 211.59 99.83 210.94 97.79 210.29 97.81 201.2 101.72 209.93 102.11 211.04 102.83 211.04 103.19 209.91 106.93 200.99 106.88 210.53 105.27 210.92 105.27 211.59 110.4 211.59 110.4 210.94 108.89 210.53 108.82 200.65"/>
    <polygon class="st4" points="114.43 202.76 111.6 203.34 111.6 204.06 112.66 204.39 112.66 210.53 111.48 210.92 111.48 211.59 115.75 211.59 115.75 210.92 114.43 210.56 114.43 202.76"/>
    <path class="st4" d="M114.67,199.26c-.02-.67-.55-1.2-1.22-1.2-.67.02-1.2.53-1.22,1.2.14.67.77,1.1,1.44.96.48-.1.86-.48.96-.96h.05Z"/>
    <path class="st4" d="M125.06,205.81c0-2.4-.79-3.05-2.52-3.05-1.18.12-2.23.7-2.95,1.63h0l-.5-1.63h0l-2.4.89v.55l1.2.29v6.07l-1.2.36v.67h4.08v-.67l-1.18-.34v-5.59c.55-.55,1.27-.86,2.04-.91,1.2,0,1.61.7,1.65,1.97v4.53l-1.01.34v.67h4v-.65l-1.18-.36-.05-4.77Z"/>
    <polygon class="st4" points="130.14 202.76 127.31 203.34 127.31 204.06 128.36 204.39 128.36 210.53 127.19 210.92 127.19 211.59 131.43 211.59 131.43 210.92 130.14 210.56 130.14 202.76"/>
    <path class="st4" d="M130.38,199.26c-.14-.67-.77-1.1-1.44-.96-.48.1-.86.48-.96.96,0,.67.53,1.2,1.2,1.2.65-.02,1.18-.55,1.2-1.2Z"/>
    <path class="st4" d="M136.78,206.67l-.91-.36c-1.1-.48-1.44-.91-1.44-1.61s.58-1.22,1.25-1.2h.1c.46,0,.89.14,1.22.43l.77,1.61h.58v-2.23c-.74-.38-1.56-.58-2.4-.58-1.56-.1-2.9,1.06-3.09,2.59,0,1.15.58,1.82,1.87,2.4l.79.36c1.29.58,1.68,1.08,1.68,1.77-.02.74-.65,1.34-1.41,1.32h-.1c-.55,0-1.08-.17-1.49-.53l-.94-2.04h-.65l.29,2.61c.74.43,1.56.67,2.4.7,1.73.17,3.26-1.06,3.5-2.76.12-1.01-.41-1.8-2.01-2.49Z"/>
    <path class="st4" d="M144.1,210.56c-.7,0-1.22,0-1.22-1.51v-5.01h2.4v-1.1h-2.4v-2.4h-.65l-1.01,2.23-1.32.36v.79h1.27v5.8c0,1.18.41,2.06,1.89,2.06.86-.05,1.68-.34,2.4-.82v-.5c-.46.07-.91.1-1.37.1Z"/>
    <path class="st4" d="M151.53,202.74c-.67,0-1.13.43-1.77,1.32l-.67.89h0l-.17-2.18h0l-2.61.89v.58l1.2.26v6.04l-1.13.38v.67h4.36v-.67l-1.61-.31v-4.94c.36-.46.77-.84,1.22-1.18l1.49.55c.38-.34.62-.82.67-1.32.05-.48-.29-.94-.79-.98-.05,0-.12,0-.19,0Z"/>
    <path class="st4" d="M158.75,203.65l1.22.41-2.23,6.07h0l-2.16-6.16,1.29-.31v-.72h-4.22v.65l.82.31,3.31,8.63-1.01,2.4h0c-.14-.43-.53-.72-.98-.74-.53-.02-.94.38-.96.91v.1c.02.65.53,1.15,1.18,1.13h.02c1.01,0,1.46-.72,2.04-2.28l3.96-9.95.84-.34v-.82h-3.12v.72Z"/>
    <path class="st4" d="M170.21,202.74c-2.47.1-4.39,2.18-4.29,4.65v.14c-.17,2.28,1.56,4.24,3.81,4.41.17,0,.31.02.48,0,2.47-.1,4.39-2.16,4.29-4.6v-.19c.22-2.21-1.39-4.2-3.62-4.41-.22-.02-.46-.02-.67,0ZM170.45,211.04c-1.77,0-2.59-2.09-2.64-4.1s.77-3.33,2.16-3.33,2.59,1.44,2.61,4.03c.07,1.89-.74,3.38-2.13,3.41Z"/>
    <path class="st4" d="M180.88,198.13c-2.4.26-4.17,2.37-3.98,4.8h0l-1.27.36v.79h1.27v6.59l-1.13.36v.67h4.53v-.67l-1.63-.36v-6.69h2.4v-1.06h-2.4v-1.41c0-1.99.84-2.69,1.82-2.69.26,0,.55.07.79.19l.46,1.58c.17.02.34.02.5,0,.53.02.98-.38,1.01-.91v-.1c0-.67-.91-1.46-2.37-1.46Z"/>
    <polygon class="st4" points="189.37 200.65 190.91 200.22 190.91 199.57 185.85 199.57 185.85 200.22 187.38 200.65 187.38 210.53 185.85 210.92 185.85 211.59 190.93 211.59 190.93 210.94 189.37 210.53 189.37 200.65"/>
    <path class="st4" d="M200.62,205.81c0-2.4-.82-3.05-2.54-3.05-1.15.12-2.23.72-2.95,1.63h0l-.38-1.63h0l-2.4.89v.55l1.2.29v6.07l-1.13.36v.67h4.08v-.67l-1.18-.34v-5.59c.55-.55,1.27-.86,2.04-.91,1.18,0,1.58.7,1.65,1.97v4.53l-1.03.34v.67h3.98v-.65l-1.34-.36v-4.77Z"/>
    <path class="st4" d="M210.59,198.13l-3.45.48v.62l1.68.34v3.36c-.48-.12-.98-.19-1.49-.19-2.57.02-4.63,2.11-4.63,4.68,0,.1,0,.19.02.31-.22,2.06,1.27,3.88,3.33,4.1.1,0,.22.02.31.02,1.03-.02,1.97-.5,2.61-1.29l.48,1.25,2.57-.36v-.65l-1.44-.36v-12.3ZM208.82,210.12c-.41.29-.89.43-1.39.43-2.16,0-2.9-1.87-2.9-3.74s1.08-3.19,2.4-3.19c.79.05,1.51.48,1.92,1.18l-.02,5.32Z"/>
    <path class="st4" d="M221.17,202.93l-3.24.31v.7l1.44.31v5.61c-.48.46-1.13.74-1.8.77-1.2,0-1.77-.67-1.82-2.11v-5.59l-3.14.22v.7l1.27.34v4.56c0,2.09.94,3.17,2.4,3.17,1.18-.05,2.25-.6,3-1.51l.58,1.46,2.57-.38v-.67l-1.41-.34.17-7.53Z"/>
    <path class="st4" d="M227.76,206.67l-.77-.36c-1.08-.48-1.44-.91-1.44-1.61s.58-1.22,1.25-1.2h.1c.46,0,.89.14,1.22.43l.77,1.61h.5v-2.23c-.7-.36-1.49-.58-2.28-.58-1.63-.19-3.09.98-3.29,2.59,0,1.15.58,1.82,1.87,2.4l.79.36c1.29.58,1.68,1.08,1.68,1.77,0,.74-.62,1.34-1.37,1.32h-.14c-.55,0-1.06-.19-1.49-.53l-.94-2.04h-.65l.31,2.61c.72.43,1.56.67,2.4.7,1.73.17,3.26-1.06,3.5-2.76.1-1.01-.41-1.8-2.04-2.49Z"/>
    <path class="st4" d="M235.08,210.56c-.67,0-1.22,0-1.22-1.51v-5.01h2.4v-1.1h-2.4v-2.4h-.65l-1.01,2.23-1.32.36v.79h1.27v5.8c0,1.18.41,2.06,1.89,2.06.91-.02,1.8-.31,2.54-.82l-.12-.5c-.46.07-.94.1-1.39.1Z"/>
    <path class="st4" d="M242.51,202.74c-.67,0-1.1.43-1.77,1.32l-.67.89h0l-.17-2.18h0l-2.64.89v.58l1.2.26v6.04l-1.13.38v.67h4.53v-.67l-1.63-.31v-4.94c.36-.46.77-.84,1.22-1.18l1.51.55c.38-.34.6-.82.65-1.32.07-.48-.26-.94-.74-1.01-.12-.02-.24,0-.36.02Z"/>
    <path class="st4" d="M249.73,203.65l1.22.41-2.23,6.07h0l-2.13-6.16,1.29-.31v-.72h-4.1v.65l.82.31,3.17,8.63-.98,2.4h0c-.14-.43-.53-.72-.98-.74-.53-.02-.94.38-.96.91v.1c.02.65.58,1.15,1.22,1.13h0c.98,0,1.44-.72,2.04-2.28l3.93-9.95.84-.34v-.82h-3.14v.72Z"/>
    <path class="st4" d="M263.71,210.24v-4.8c0-1.85-.79-2.73-2.71-2.73s-3.62,1.34-3.62,2.23c-.02.43.31.82.77.82h.14c.26.02.55.02.82,0v-1.82c.34-.19.7-.29,1.08-.29.98,0,1.61.67,1.65,2.11v.89l-1.89.48c-1.82.48-2.9,1.13-2.9,2.59-.02,1.2.94,2.16,2.13,2.18h.1c1.18,0,1.65-.55,2.57-1.49h0c-.07.72.43,1.37,1.18,1.46h.19c.65-.07,1.27-.24,1.85-.5v-.55h-.84c-.38-.05-.5-.17-.5-.58ZM261.91,209.67c-.31.53-.89.84-1.49.86-.74.05-1.39-.5-1.44-1.25v-.12c0-.74.5-1.08,1.39-1.41l1.53-.5v2.42Z"/>
    <path class="st4" d="M274.43,205.81c0-2.4-.79-3.05-2.4-3.05-1.18.12-2.23.7-2.95,1.63h0l-.38-1.63h0l-2.4.89v.55l1.2.29v6.07l-1.13.36v.67h3.79v-.67l-1.18-.34v-5.59c.53-.55,1.27-.89,2.04-.91,1.18,0,1.58.7,1.63,1.97v4.53l-1.01.34v.67h3.98v-.65l-1.2-.36v-4.77Z"/>
    <path class="st4" d="M284.55,198.13l-3.45.48v.62l1.68.34v3.36c-.5-.12-1.01-.19-1.51-.19-2.57.02-4.6,2.11-4.6,4.65,0,.12,0,.22.02.34-.22,2.06,1.27,3.88,3.33,4.1.1,0,.22.02.31.02,1.03-.02,1.97-.5,2.61-1.29l.46,1.25,2.57-.36v-.65l-1.41-.34v-12.33ZM282.77,210.12c-.41.29-.91.43-1.41.43-2.13,0-2.9-1.87-2.9-3.74s1.1-3.19,2.4-3.19c.79.05,1.51.48,1.92,1.18v5.32Z"/>
    <polygon class="st4" points="304.38 200.65 305.89 200.22 305.89 199.57 301.81 199.57 301.72 200.41 298.55 208.18 294.74 199.57 290.78 199.57 290.78 200.22 292.32 200.65 292.27 210.51 290.74 210.94 290.74 211.59 295.36 211.59 295.36 210.94 293.33 210.29 293.35 201.2 297.26 209.93 297.67 211.04 298.36 211.04 298.74 209.91 302.46 200.99 302.41 210.53 300.81 210.92 300.81 211.59 305.94 211.59 305.94 210.94 304.43 210.53 304.38 200.65"/>
    <path class="st4" d="M307.79,199.26c-.02.67.53,1.22,1.2,1.25.67.02,1.22-.53,1.25-1.2.02-.67-.53-1.22-1.2-1.25h-.02c-.67,0-1.2.53-1.22,1.2Z"/>
    <polygon class="st4" points="309.97 202.76 307.14 203.34 307.14 204.06 308.22 204.39 308.22 210.53 307.02 210.92 307.02 211.59 311.29 211.59 311.29 210.92 309.97 210.56 309.97 202.76"/>
    <path class="st4" d="M320.52,205.81c0-2.4-.82-3.05-2.54-3.05-1.15.12-2.23.72-2.95,1.63h0l-.38-1.63h0l-2.4.89v.55l1.2.29v6.07l-1.13.36v.67h4.08v-.67l-1.18-.34v-5.59c.55-.55,1.27-.86,2.04-.91,1.18,0,1.58.7,1.65,1.97v4.53l-1.03.34v.67h3.98v-.65l-1.34-.36v-4.77Z"/>
    <path class="st4" d="M327.71,210.39c-1.85,0-3.14-1.34-3.14-3.67h5.97c0-2.4-1.18-3.96-3.29-3.96-2.49.07-4.44,2.16-4.36,4.65,0,.1,0,.22.02.31-.14,2.18,1.51,4.1,3.72,4.24,1.73.12,3.33-.91,3.96-2.52l-.48-.36c-.6.74-1.46,1.2-2.4,1.29ZM326.83,203.63c1.18,0,1.7,1.1,1.7,2.4h-3.93c0-1.25.94-2.28,2.18-2.4h.05Z"/>
    <path class="st4" d="M337.31,202.74c-.67,0-1.13.43-1.77,1.32l-.7.89h0l-.17-2.18h0l-2.61.89v.58l1.2.26v6.04l-1.13.38v.67h4.51v-.67l-1.73-.31v-4.94c.36-.46.77-.84,1.22-1.18l1.49.55c.38-.34.6-.82.65-1.32.05-.48-.29-.94-.79-.98h-.17Z"/>
    <path class="st4" d="M345.55,210.24v-4.8c0-1.85-.79-2.73-2.73-2.73s-3.6,1.34-3.6,2.23c0,.5.31.82.91.82.26.02.55.02.82,0v-1.82c.31-.19.7-.29,1.06-.29,1.01,0,1.61.67,1.68,2.11v.89l-1.89.48c-1.85.48-2.9,1.13-2.9,2.59-.02,1.2.94,2.16,2.13,2.18h.1c1.18,0,1.63-.55,2.57-1.49h0c0,.79.41,1.46,1.39,1.46.62-.07,1.25-.24,1.82-.5v-.55h-.84c-.41-.05-.5-.17-.5-.58ZM343.76,209.67c-.34.53-.89.84-1.51.86-.74.05-1.39-.5-1.44-1.25v-.12c0-.74.5-1.08,1.41-1.41l1.53-.5v2.42Z"/>
    <polygon class="st4" points="350.76 198.09 347.81 198.69 347.81 199.33 348.98 199.67 348.98 210.56 347.86 210.92 347.86 211.59 352.01 211.59 352.01 210.92 350.76 210.58 350.76 198.09"/>
    <path class="st4" d="M363.68,205.64h0c1.56-.55,2.69-1.51,2.69-3.09s-1.77-3.07-5.2-3.02h-4.34v.65l1.53.43v9.88l-1.53.38v.67h4.99v-.65l-1.49-.41v-4.24h1.46l.77,1.15,3,4.27h3.12v-.65l-1.56-.38-3.43-4.99ZM361.72,205.45h-1.39v-5.25c2.54,0,3.96,1.01,3.96,2.71-.05,1.39-1.18,2.49-2.57,2.54Z"/>
    <path class="st4" d="M373.59,210.39c-1.85,0-3.14-1.34-3.14-3.67h5.97c0-2.4-1.18-3.96-3.29-3.96-2.49.1-4.46,2.18-4.36,4.7v.1c-.12,2.23,1.58,4.12,3.81,4.24h.22c1.58-.02,3-.96,3.67-2.4l-.38-.26c-.62.74-1.53,1.2-2.49,1.25ZM372.7,203.63c1.18,0,1.7,1.1,1.7,2.4h-3.88c0-1.25.94-2.28,2.18-2.4Z"/>
    <path class="st4" d="M382.17,206.67l-.84-.36c-1.08-.48-1.41-.91-1.41-1.61s.53-1.2,1.2-1.2h.12c.46,0,.89.14,1.25.43l.74,1.61h.58v-2.23c-.74-.38-1.56-.58-2.4-.58-1.58-.12-2.97,1.01-3.17,2.59,0,1.15.58,1.82,1.87,2.4l.79.36c1.27.58,1.68,1.08,1.68,1.77-.02.74-.65,1.34-1.41,1.32h-.1c-.55.02-1.08-.17-1.49-.53l-.94-2.04h-.58l.29,2.61c.72.43,1.56.67,2.4.7,1.73.17,3.26-1.06,3.5-2.76.05-1.01-.48-1.8-2.09-2.49Z"/>
    <path class="st4" d="M390.06,202.74c-2.47.1-4.39,2.18-4.29,4.65v.14c-.1,2.28,1.65,4.22,3.96,4.34h.34c2.47-.07,4.39-2.13,4.32-4.58v-.22c.17-2.23-1.51-4.17-3.74-4.34-.19-.02-.38-.02-.58,0ZM390.33,211.04c-1.8,0-2.59-2.09-2.66-4.1-.07-2.01.77-3.33,2.18-3.33s2.61,1.44,2.61,4.12c0,1.8-.77,3.29-2.13,3.31Z"/>
    <path class="st4" d="M403.68,202.93l-3.24.31v.7l1.44.31v5.61c-.48.46-1.13.74-1.8.77-1.2,0-1.77-.67-1.82-2.11v-5.59l-3.02.34v.7l1.25.34v4.56c0,2.09.94,3.17,2.4,3.17,1.18-.05,2.25-.6,3-1.51l.58,1.46,2.57-.38v-.67l-1.41-.34.07-7.65Z"/>
    <path class="st4" d="M411.12,202.74c-.67,0-1.13.43-1.8,1.32l-.67.89h0l-.17-2.18h0l-2.61.89v.58l1.18.26v6.04l-1.1.38v.67h4.51v-.67l-1.61-.31v-4.94c.34-.46.74-.84,1.2-1.18l1.51.55c.38-.34.6-.82.65-1.32.07-.48-.26-.94-.77-1.01-.1,0-.22,0-.31.02Z"/>
    <path class="st4" d="M417.54,210.46c-1.85-.14-3.21-1.73-3.07-3.57v-.1c0-1.77,1.01-3.19,2.4-3.19.36-.02.72.05,1.01.26l.26,1.77c.22.02.46.02.67,0,.53.02.98-.38,1.01-.91v-.14c0-1.03-1.1-1.87-2.66-1.87-2.57.12-4.58,2.23-4.58,4.8-.19,2.16,1.39,4.05,3.53,4.24.14.02.26.02.41.02,1.46,0,2.81-.89,3.38-2.23l-.36-.29c-.46.67-1.2,1.1-1.99,1.2Z"/>
    <path class="st4" d="M426.03,210.39c-1.87,0-3.14-1.34-3.14-3.67h5.97c0-2.4-1.2-3.96-3.31-3.96-2.49.1-4.44,2.18-4.34,4.68,0,.1,0,.19.02.29-.12,2.23,1.58,4.12,3.81,4.24h.22c1.58-.02,3-.96,3.65-2.4l-.36-.26c-.65.7-1.56,1.08-2.52,1.08ZM425.15,203.63c1.15,0,1.68,1.1,1.7,2.4h-3.88c0-1.22.91-2.25,2.11-2.4h.07Z"/>
    <path class="st4" d="M434.52,206.67l-.82-.36c-1.08-.48-1.41-.91-1.41-1.61s.53-1.2,1.2-1.2h.12c.46,0,.89.14,1.25.43l.74,1.61h.58v-2.23c-.7-.36-1.49-.58-2.28-.58-1.63-.19-3.12.96-3.31,2.59,0,1.15.6,1.82,1.87,2.4l.79.36c1.29.58,1.68,1.08,1.68,1.77,0,.74-.62,1.34-1.37,1.32h-.14c-.53.02-1.06-.17-1.46-.53l-.94-2.04h-.67l.31,2.61c.72.43,1.56.67,2.4.7,1.73.17,3.26-1.06,3.5-2.76.1-1.01-.43-1.8-2.04-2.49Z"/>
    <path class="st4" d="M629.87,196.07c4.8-7.51,8.44-21.32,10.17-31.87-3.14,3.81-6.81,7.17-10.89,9.95-18.8,13.55-51.08,26.38-72.68,31.44l.48.48h0l.62.6.19.19,1.77,1.7,1.77,1.65h0l1.68,1.53h.12l1.25,1.08,1.03.89c1.32,1.1,2.66,2.16,4.03,3.17,2.04,1.51.62.48,1.63,1.18,1.01.7,1.49.98,2.23,1.41h.17c4.17,2.66,8.87,4.41,13.76,5.11,1.99.22,4.03-.02,5.92-.7h0l.26-.12h.5c13.55-5.04,30.77-19.4,35.97-27.7Z"/>
    <path class="st4" d="M572.31,222.23l-.22-.14c-.74-.43-1.51-.94-2.4-1.46s-1.7-1.25-1.73-1.25c-1.39-1.03-2.78-2.13-4.12-3.26l-1.08-.91-1.27-1.1-1.92-1.73c-1.1-1.01-2.4-2.13-3.86-3.65l-2.9-2.9c-28.13-28.61-47.65-73.09-54.12-103.26-4.6,3.24-8.58,7.31-11.73,11.99l-.46.7h0l-.22.31c-1.85,3.02-2.95,6.4-3.24,9.93h0c-.22,22.47,15.52,61.61,28.56,77.84,3.6,4.12,7.99,7.53,12.9,9.98h0l.74.36.46.22.36.17c16.4,7.58,42.13,12.11,55.44,12.28-3.21-1.01-6.31-2.37-9.21-4.1Z"/>
    <path class="st4" d="M485.55,111.8c3.57-4.99,8.08-9.26,13.24-12.57,5.47-3.6,11.85-5.54,18.37-5.59h2.06c15.76,1.13,28.78,14.84,43.79,30.72,9.4,9.9,19.18,20.17,30.53,28.42,10.6,7.89,22.23,14.27,34.56,18.97,7.79-5.71,12.25-11.01,12.88-15.32v-.38h0c.22-3.81-1.68-6.5-7.19-10.12h-.19l-.29-.29c-1.73-1.13-3.72-2.4-5.83-3.55-11.61-6.62-22.45-14.53-32.3-23.55-4.44-4.1-8.9-8.73-13.62-13.64-14.99-15.66-32.01-33.36-50.5-33.86h-.58c-16.69,0-37.58,19.78-44.92,40.77Z"/>
  </g>
  <g>
    <polygon class="st1" points="1223.34 199.84 1218.94 203.01 1130.3 79.17 1131.49 71.52 1223.34 199.84"/>
    <g>
      <polygon class="st0" points="1234.98 197.88 1230.58 201.06 1150.51 88.93 1151.71 81.28 1234.98 197.88"/>
      <polygon class="st0" points="1202.87 208.18 1198.47 211.35 1100.55 75.73 1101.72 68.08 1202.87 208.18"/>
    </g>
    <polygon class="st1" points="1211.69 201.77 1207.29 204.95 1163.27 144.03 1163.1 143.78 1163.07 143.78 1142.1 114.38 1112.94 74.01 1114.14 66.36 1148.65 114.13 1188 168.93 1211.69 201.77"/>
    <g>
      <polygon class="st3" points="1257.17 192.63 1252.75 195.8 1191.32 110.03 1192.52 102.38 1257.17 192.63"/>
      <polygon class="st3" points="1181.59 216.38 1177.19 219.58 1090.62 98.98 1091.8 91.33 1181.59 216.38"/>
      <polygon class="st3" points="1246.81 196.3 1242.39 199.47 1173.42 103.55 1174.62 95.9 1246.81 196.3"/>
      <polygon class="st3" points="1196.25 217.45 1191.85 220.65 1099.15 92.75 1100.32 85.1 1196.25 217.45"/>
    </g>
    <g>
      <polygon class="st2" points="1267.16 188.36 1262.73 191.54 1244.97 167.73 1246.17 160.05 1267.16 188.36"/>
      <polygon class="st2" points="1270.9 175.9 1266.5 179.08 1259 168.28 1260.2 160.65 1270.9 175.9"/>
      <polygon class="st2" points="1165.77 214 1161.35 217.18 1077.34 98.95 1078.51 91.33 1165.77 214"/>
      <polygon class="st2" points="1158.1 223.67 1153.7 226.84 1116.2 173.3 1117.37 165.65 1158.1 223.67"/>
    </g>
  </g>
</svg>